Coordinates
version=1
nRows=8
nColumns=40
inDegrees=yes

Units are S.I. units (second, meters, Newtons, ...)
If the header above contains a line with 'inDegrees', this indicates whether rotational values are in degrees (yes) or radians (no).

endheader
time	pelvis_tilt	pelvis_list	pelvis_rotation	pelvis_tx	pelvis_ty	pelvis_tz	hip_flexion_r	hip_adduction_r	hip_rotation_r	knee_angle_r	knee_angle_r_beta	ankle_angle_r	subtalar_angle_r	mtp_angle_r	hip_flexion_l	hip_adduction_l	hip_rotation_l	knee_angle_l	knee_angle_l_beta	ankle_angle_l	subtalar_angle_l	mtp_angle_l	lumbar_extension	lumbar_bending	lumbar_rotation	arm_flex_r	arm_add_r	arm_rot_r	elbow_flex_r	pro_sup_r	wrist_flex_r	wrist_dev_r	arm_flex_l	arm_add_l	arm_rot_l	elbow_flex_l	pro_sup_l	wrist_flex_l	wrist_dev_l
      0.34000000	      3.63726580	     -5.40612357	     -1.00851348	     -0.12814964	      0.94127597	      0.23580895	     -0.55865151	      6.74831366	    -11.23522894	      9.83283871	      0.17161541	     -0.01710273	     -5.90831462	      0.00000000	     19.35887722	    -18.70810566	    -12.41266237	     71.56623282	      1.24906640	     -4.56036605	    -11.01079203	      0.00000000	     -5.88287427	      7.97625686	     -0.69089670	     41.92269804	    -15.79037797	     41.92269804	     75.84489058	     44.98701491	      0.00000000	      0.00000000	     41.92269804	    -15.79037797	     41.92269804	     75.84489058	     44.98701491	      0.00000000	      0.00000000
      0.34500000	      4.11031748	     -4.76238445	     -1.31090057	     -0.12153689	      0.94273045	      0.23631640	     -1.73407242	      5.95272080	    -11.53779500	      9.50563477	      0.16590462	      0.59444930	     -4.21640398	      0.00000000	     19.07222672	    -17.98780386	    -13.16965400	     70.38509185	      1.22845160	     -3.72678026	    -10.17020750	      0.00000000	     -6.44080814	      7.15458780	     -0.25652306	     41.93139624	    -15.78669007	     41.93139624	     75.83718253	     44.98734132	      0.00000000	      0.00000000	     41.93139624	    -15.78669007	     41.93139624	     75.83718253	     44.98734132	      0.00000000	      0.00000000
      0.35000000	      4.01620170	     -4.77052719	     -1.45506599	     -0.11534519	      0.94287043	      0.23625944	     -2.15837637	      5.93231763	    -11.66774675	      9.37149565	      0.16356345	      0.76986190	     -4.03024617	      0.00000000	     19.81194883	    -17.94093187	    -13.41296282	     69.55392517	      1.21394500	     -3.48619717	    -10.04006553	      0.00000000	     -6.36567801	      7.18963686	     -0.22789738	     41.93208899	    -15.78639671	     41.93208899	     75.83657106	     44.98736698	      0.00000000	      0.00000000	     41.93208899	    -15.78639671	     41.93208899	     75.83657106	     44.98736698	      0.00000000	      0.00000000
      0.35500000	      4.51159594	     -3.83712985	     -1.90253214	     -0.10882470	      0.94437510	      0.23714610	     -3.22090957	      4.77068618	    -11.96784135	      9.29623885	      0.16224998	      1.59998164	     -2.23166489	      0.00000000	     19.30860477	    -16.89844314	    -14.41670914	     68.03095174	      1.18736410	     -2.98748849	     -9.45582462	      0.00000000	     -6.96573639	      5.97023473	      0.36353501	     41.94518462	    -15.78085839	     41.94518462	     75.82506663	     44.98784338	      0.00000000	      0.00000000	     41.94518462	    -15.78085839	     41.94518462	     75.82506663	     44.98784338	      0.00000000	      0.00000000
      0.36000000	      4.41319769	     -3.90524185	     -2.01106329	     -0.10262071	      0.94435385	      0.23702004	     -3.63180286	      4.81131976	    -12.13484123	      9.17200862	      0.16008175	      1.76867889	     -2.06814212	      0.00000000	     20.00765401	    -16.90619591	    -14.63323487	     67.07575128	      1.17069271	     -2.73716904	     -9.26772466	      0.00000000	     -6.87882039	      6.08067080	      0.36686447	     41.94588974	    -15.78056067	     41.94588974	     75.82445048	     44.98786857	      0.00000000	      0.00000000	     41.94588974	    -15.78056067	     41.94588974	     75.82445048	     44.98786857	      0.00000000	      0.00000000
      0.36500000	      4.84944584	     -3.28225046	     -2.32942346	     -0.09607705	      0.94545838	      0.23760851	     -4.69857878	      4.01946580	    -12.40182162	      8.92485371	      0.15576808	      2.33257164	     -0.58792324	      0.00000000	     19.65183508	    -16.19188413	    -15.41467252	     65.56991207	      1.14441086	     -2.12640900	     -8.39650800	      0.00000000	     -7.38838614	      5.25285955	      0.76435680	     41.95507942	    -15.77668376	     41.95507942	     75.81644514	     44.98819298	      0.00000000	      0.00000000	     41.95507942	    -15.77668376	     41.95507942	     75.81644514	     44.98819298	      0.00000000	      0.00000000
      0.37000000	      4.80687162	     -3.12259804	     -2.48250696	     -0.08970184	      0.94547043	      0.23772451	     -5.23746126	      3.80306250	    -12.51064529	      8.67069519	      0.15133218	      2.64476469	      0.01076789	      0.00000000	     20.11571278	    -15.93266868	    -15.73981079	     64.36351473	      1.12335525	     -1.71099730	     -7.90278340	      0.00000000	     -7.33928260	      5.03698116	      0.87269489	     41.95832488	    -15.77531644	     41.95832488	     75.81363104	     44.98830568	      0.00000000	      0.00000000	     41.95832488	    -15.77531644	     41.95832488	     75.81363104	     44.98830568	      0.00000000	      0.00000000
      0.37500000	      5.18111422	     -2.55590102	     -2.89437470	     -0.08339718	      0.94634959	      0.23846761	     -6.04977006	      3.03845131	    -12.74949325	      8.76277948	      0.15293935	      3.22044348	      1.05851701	      0.00000000	     19.77710568	    -15.27093051	    -16.57132474	     62.67346919	      1.09385839	     -1.54318338	     -7.56549555	      0.00000000	     -7.80764135	      4.27096985	      1.35622391	     41.96988086	    -15.77045580	     41.96988086	     75.80366731	     44.98869892	      0.00000000	      0.00000000	     41.96988086	    -15.77045580	     41.96988086	     75.80366731	     44.98869892	      0.00000000	      0.00000000
